# xmcd
#
# Track frame offsets: 
#        150
#        11427
#        23967
#        43490
#        56070
#        68625
#        80160
#        96657
#        110065
#        122767
#        140542
#        149525
#        163152
#        180837
#        194402
#        203957
#        219440
#        234532
#        246015
#        262442
#
# Disc length: 3668 seconds
#
# Revision: 0
# Processed by: cddbd v1.5.2PL0 Copyright (c) Steve Scherf et al.
# Submitted via: ExactAudioCopyFreeDBPlugin 1.0
#
DISCID=3c0e5214
DTITLE=Various Artist - The Very Best Of Country Music, Vol. 9
DYEAR=1994
DGENRE=Country
TTITLE0=Patsy Cline - Just Out Of Reach (Of My Two Empty Arms)
TTITLE1=Don Williams - Some Broken Hearts Never Mend
TTITLE2=The Bellamy Brothers - World's Greatest Lover
TTITLE3=Loretta Lynn - Behind Closed Doors
TTITLE4=Jim Reeves - I Can't Stop Loving You
TTITLE5=Brenda Lee - As Usual
TTITLE6=Kenny Rogers and The First Edition - Tulsa Turnaround
TTITLE7=Waylon Jennings - Amanda
TTITLE8=George Hamilton IV - I'm So Lonesome I Could Cry
TTITLE9=Oak Ridge Boys - Everyday
TTITLE10=Boxcar Willie - Gypsy Lady And The Hobo
TTITLE11=Willie Nelson - Have I Told You Lately That I Love You
TTITLE12=Hank Williams Jr. - All My Rowdy Friends (Have Settled Down)
TTITLE13=Merle Haggard - A Bar In Bakersfield
TTITLE14=Don Gibson - Take These Chains From My Heart
TTITLE15=The Desert Rose Band - Our Songs
TTITLE16=Billie Jo Spears - The Best Thing We Could Do Is Say Goodbye
TTITLE17=George Jones - I Can't Change Overnight
TTITLE18=Lee Greenwood - It Turns Me Inside Out
TTITLE19=George Strait - It Ain't Cool To Be Crazy About You
EXTD=
EXTT0=
EXTT1=
EXTT2=
EXTT3=
EXTT4=
EXTT5=
EXTT6=
EXTT7=
EXTT8=
EXTT9=
EXTT10=
EXTT11=
EXTT12=
EXTT13=
EXTT14=
EXTT15=
EXTT16=
EXTT17=
EXTT18=
EXTT19=
PLAYORDER=
